<?xml version="1.0" encoding="utf-8"?>
<!-- Generator: Adobe Illustrator 24.0.3, SVG Export Plug-In . SVG Version: 6.00 Build 0)  -->
<svg version="1.1" id="Layer_1" xmlns="http://www.w3.org/2000/svg" xmlns:xlink="http://www.w3.org/1999/xlink" x="0px" y="0px"
	 viewBox="0 0 272.3 86.8" style="enable-background:new 0 0 272.3 86.8;" xml:space="preserve">
<g>
	<title>Asset 3</title>
	<path d="M44.3,18.9v49H31.6V47.3h-3.8v20.6H15v-49h12.8v17.5h3.8V18.9H44.3z"/>
	<path d="M71.4,18.9l7.3,49h-13L65,59.1h-4.5l-0.8,8.8H46.5l6.5-49L71.4,18.9z M64.7,50.4C64,44.9,63.4,38,62.8,29.8
		c-1.3,9.4-2.1,16.3-2.4,20.6H64.7z"/>
	<path d="M80.9,18.9h9c6,0,10.1,0.2,12.2,0.7s4,1.7,5.2,3.6c1.3,1.9,2,5,2,9.1c0,3.8-0.5,6.4-1.4,7.7c-1,1.3-2.8,2.1-5.6,2.4
		c2.5,0.6,4.2,1.5,5.1,2.5c0.7,0.8,1.3,1.8,1.6,2.9c0.3,2.4,0.4,4.8,0.3,7.2v12.9H97.5V51.6c0-2.6-0.2-4.2-0.6-4.9s-1.5-0.9-3.2-0.9
		v22.1H80.9V18.9z M93.7,27.3v10.9c1,0.1,2.1-0.1,3-0.6c0.6-0.4,0.9-1.7,0.9-3.8V31c0-1.5-0.3-2.6-0.8-3
		C95.8,27.4,94.7,27.2,93.7,27.3z"/>
	<path d="M114.3,18.8h9.5c6.2,0,10.3,0.3,12.5,0.9c1.9,0.4,3.7,1.4,5,2.8c1.1,1.2,1.8,2.7,2.1,4.3c0.4,3.1,0.5,6.2,0.4,9.3v17.2
		c0,4.4-0.2,7.3-0.6,8.8c-0.4,1.4-1.1,2.6-2.2,3.5c-1.1,0.9-2.4,1.5-3.8,1.8c-2.3,0.4-4.5,0.6-6.8,0.5h-16L114.3,18.8L114.3,18.8z
		 M127,27.2v32.2c1.8,0,3-0.4,3.4-1.1c0.4-0.7,0.6-2.7,0.6-6v-19c0-1.4,0-2.8-0.2-4.3c-0.1-0.6-0.5-1.1-1-1.4
		C128.9,27.3,128,27.1,127,27.2z"/>
	<path d="M178.3,40.2h-12.7v-8.5c0.1-1.6,0-3.1-0.4-4.6c-0.3-0.7-1.1-1-1.8-0.9c-0.8-0.1-1.7,0.3-2,1.1c-0.4,1.6-0.5,3.2-0.4,4.8
		v22.8c-0.1,1.6,0.1,3.1,0.4,4.7c0.3,0.8,1.1,1.2,1.9,1.1c0.8,0.1,1.6-0.3,1.9-1.1c0.4-1.7,0.5-3.4,0.4-5.1v-6.2h12.7v1.9
		c0,5.1-0.4,8.7-1.1,10.8c-0.9,2.3-2.6,4.3-4.8,5.6c-2.7,1.7-5.9,2.5-9.1,2.4c-3.2,0.1-6.4-0.6-9.2-2c-2.3-1.2-4-3.2-4.8-5.6
		c-0.8-2.4-1.2-6-1.2-10.8V36.2c0-2.7,0.1-5.3,0.4-8c0.3-1.9,1-3.6,2.2-5.1c1.3-1.7,3-3,5-3.9c5.4-2.1,11.4-1.8,16.6,0.8
		c2.2,1.2,3.9,3.1,4.8,5.4c0.8,2.2,1.2,5.5,1.1,10.1L178.3,40.2z"/>
	<path d="M212,47.6c0,4.9-0.1,8.4-0.4,10.5c-0.5,4.2-3.2,7.9-7.1,9.5c-2.3,1-4.8,1.4-7.3,1.4c-2.4,0-4.8-0.4-7.1-1.3
		c-4-1.6-6.8-5.2-7.3-9.5c-0.3-3.5-0.4-7.1-0.4-10.6v-8.4c0-4.9,0.1-8.4,0.4-10.5c0.5-4.2,3.2-7.9,7.1-9.5c2.3-1,4.8-1.4,7.3-1.4
		c2.4,0,4.8,0.4,7.1,1.3c4,1.6,6.8,5.2,7.3,9.5c0.3,3.5,0.4,7.1,0.3,10.6L212,47.6L212,47.6z M199.2,31.5c0.1-1.5,0-2.9-0.4-4.4
		c-0.2-0.6-0.9-1.1-1.6-1c-0.6,0-1.2,0.3-1.5,0.8c-0.4,0.5-0.5,2-0.5,4.6v22.9c-0.1,1.8,0,3.5,0.4,5.3c0.2,0.7,0.9,1.1,1.6,1
		c0.8,0.1,1.5-0.4,1.7-1.2c0.3-1.8,0.4-3.6,0.4-5.5L199.2,31.5z"/>
	<path d="M216.8,18.9h9c6,0,10.1,0.2,12.2,0.7c2.1,0.5,4,1.7,5.2,3.6c1.3,1.9,2,5,2,9.1c0,3.8-0.5,6.4-1.4,7.7s-2.8,2.1-5.6,2.4
		c2.5,0.6,4.2,1.5,5.1,2.5c0.8,0.8,1.3,1.8,1.6,2.9c0.3,2.4,0.4,4.8,0.3,7.2v12.9h-11.8V51.6c0-2.6-0.2-4.2-0.6-4.9
		s-1.5-0.9-3.2-0.9v22.1h-12.8V18.9z M229.5,27.3v10.9c1,0.1,2.1-0.1,3-0.6c0.6-0.4,0.9-1.7,0.9-3.8V31c0-1.5-0.3-2.6-0.8-3
		C231.7,27.4,230.6,27.2,229.5,27.3z"/>
	<path d="M250.2,18.9h21.3v9.8H263V38h8v9.3h-8v10.8h9.4v9.8h-22.1L250.2,18.9L250.2,18.9z"/>
	<g>
		<rect y="0" width="50.3" height="9.9"/>
		<rect y="9.9" width="9.9" height="76.9"/>
		<rect x="9.9" y="76.9" width="262.4" height="9.9"/>
	</g>
</g>
</svg>
