<?xml version="1.0" encoding="utf-8"?>
<!-- Generator: Adobe Illustrator 24.0.3, SVG Export Plug-In . SVG Version: 6.00 Build 0)  -->
<svg version="1.1" id="Layer_1" xmlns="http://www.w3.org/2000/svg" xmlns:xlink="http://www.w3.org/1999/xlink" x="0px" y="0px"
	 viewBox="0 0 171.4 86.8" style="enable-background:new 0 0 171.4 86.8;" xml:space="preserve">
<title>Asset 5</title>
<path d="M44.3,19v49H31.6V47.4h-3.8V68H15V19h12.8v17.5h3.8V19H44.3z"/>
<path d="M78.5,47.7c0,4.9-0.1,8.4-0.3,10.5c-0.5,4.2-3.2,7.9-7.1,9.5c-2.3,1-4.8,1.4-7.3,1.4c-2.4,0-4.8-0.4-7.1-1.3
	c-4-1.6-6.8-5.2-7.3-9.5c-0.3-3.5-0.4-7.1-0.4-10.6v-8.4c-0.1-3.5,0.1-7,0.3-10.5c0.5-4.2,3.2-7.9,7.1-9.5c2.3-1,4.8-1.4,7.3-1.4
	c2.4,0,4.8,0.4,7.1,1.3c4,1.6,6.8,5.2,7.3,9.5c0.3,3.5,0.4,7.1,0.4,10.6V47.7z M65.8,31.6c0.1-1.5,0-2.9-0.4-4.4
	c-0.2-0.7-0.9-1.1-1.6-1c-0.6,0-1.2,0.3-1.5,0.8s-0.5,2-0.5,4.6v22.9c-0.1,1.8,0,3.5,0.3,5.3c0.2,0.7,0.9,1.1,1.6,1
	c0.8,0.1,1.5-0.4,1.7-1.2c0.3-1.8,0.4-3.6,0.4-5.5V31.6z"/>
<path d="M112.3,18.5v32.8c0.1,2.6-0.1,5.2-0.4,7.8c-0.3,1.7-1.1,3.3-2.2,4.6c-1.2,1.6-2.8,2.8-4.7,3.6c-2.2,0.9-4.5,1.3-6.9,1.2
	c-2.7,0.1-5.3-0.4-7.8-1.5c-2-0.8-3.7-2.1-5-3.8c-1.1-1.4-1.8-3.1-2-4.9C83.1,56.6,83,53,83,47.4v-29h12.8v36.7
	c-0.1,1.4,0,2.8,0.3,4.1c0.2,0.6,0.8,0.9,1.4,0.9c0.7,0.1,1.3-0.3,1.6-1c0.3-1.5,0.4-3.1,0.3-4.6v-36H112.3z"/>
<path d="M144.2,33.7h-11.8v-3.6c0.1-1.1-0.1-2.2-0.4-3.2c-0.3-0.5-0.9-0.7-1.5-0.7c-0.7,0-1.4,0.3-1.7,0.9c-0.5,0.9-0.7,1.9-0.6,2.9
	c-0.1,1.3,0.2,2.5,0.7,3.7c0.4,0.8,1.6,1.8,3.6,3c5.7,3.4,9.2,6.1,10.7,8.3s2.2,5.6,2.2,10.4c0,3.5-0.4,6.1-1.2,7.7
	c-1.1,1.9-2.7,3.4-4.7,4.2c-2.6,1.2-5.4,1.7-8.2,1.7c-3,0.1-6-0.6-8.7-1.9c-2.1-1-3.8-2.8-4.7-4.9c-0.9-2.7-1.2-5.6-1.1-8.5v-3.2
	h11.8v6c-0.1,1.2,0.1,2.4,0.5,3.5c0.4,0.6,1.1,0.9,1.8,0.8c0.8,0,1.5-0.3,1.9-1c0.5-0.9,0.7-2,0.6-3c0-2.9-0.4-4.8-1.2-5.7
	c-1.9-1.7-3.9-3.2-6-4.5c-2.2-1.4-4.3-2.9-6.3-4.6c-1.1-1.1-2-2.4-2.6-3.9c-0.7-2.1-1.1-4.2-1-6.4c0-3.8,0.5-6.5,1.4-8.2
	c1.1-1.8,2.7-3.3,4.7-4.1c2.4-1,5.1-1.6,7.7-1.5c2.9-0.1,5.8,0.5,8.5,1.6c2,0.7,3.6,2.2,4.6,4c0.8,1.6,1.1,4.4,1.1,8.3L144.2,33.7z"
	/>
<path d="M149.3,19h21.2v9.8H162v9.3h8v9.3h-8v10.8h9.4V68h-22.1L149.3,19z"/>
<g>
	<rect y="0.1" width="50.3" height="9.9"/>
	<rect y="10" width="9.9" height="76.8"/>
	<rect x="9.9" y="77" width="161.5" height="9.9"/>
</g>
</svg>
