<?xml version="1.0" encoding="utf-8"?>
<!-- Generator: Adobe Illustrator 24.0.3, SVG Export Plug-In . SVG Version: 6.00 Build 0)  -->
<svg version="1.1" id="Layer_1" xmlns="http://www.w3.org/2000/svg" xmlns:xlink="http://www.w3.org/1999/xlink" x="0px" y="0px"
	 viewBox="0 0 107.3 86.8" style="enable-background:new 0 0 107.3 86.8;" xml:space="preserve">
<title>Asset 4</title>
<g>
	<path d="M15,18.9h9c6,0,10.1,0.2,12.2,0.7c2.1,0.5,4,1.7,5.2,3.6c1.3,1.9,2,5,2,9.1c0,3.8-0.4,6.4-1.4,7.7s-2.8,2.1-5.6,2.4
		c2.5,0.6,4.2,1.5,5.1,2.5c0.8,0.8,1.3,1.8,1.6,2.9c0.3,2.4,0.4,4.8,0.3,7.2v12.9H31.6V51.6c0-2.6-0.2-4.2-0.6-4.9s-1.5-0.9-3.2-0.9
		v22.1H15V18.9z M27.8,27.3v10.9c1,0.1,2.1-0.1,3-0.6c0.6-0.4,0.9-1.7,0.9-3.8V31c0-1.5-0.3-2.6-0.8-3
		C29.9,27.4,28.8,27.2,27.8,27.3z"/>
	<path d="M70.4,18.9l7.3,49h-13L64,59.1h-4.6l-0.8,8.8H45.5l6.5-49L70.4,18.9z M63.7,50.4c-0.7-5.5-1.3-12.4-2-20.6
		c-1.3,9.4-2.1,16.3-2.5,20.6H63.7z"/>
	<path d="M79.9,18.9h12.8c2.7-0.1,5.4,0.2,8,0.8c1.6,0.4,3,1.2,4.2,2.4c1,1.1,1.6,2.3,1.9,3.7c0.4,2.2,0.6,4.5,0.5,6.8v4.3
		c0.1,2.3-0.2,4.6-1,6.8c-0.7,1.5-2,2.7-3.6,3.3c-2.2,0.8-4.5,1.2-6.8,1.2h-3.4v19.7H79.9V18.9z M92.6,27.3v12.5h0.9
		c0.9,0.1,1.8-0.2,2.4-0.8c0.4-0.6,0.7-1.8,0.7-3.6v-4c0-1.7-0.3-2.8-0.8-3.3S94.3,27.3,92.6,27.3z"/>
	<g>
		<rect y="0" width="50.3" height="9.9"/>
		<rect y="9.9" width="9.9" height="76.9"/>
		<rect x="9.9" y="76.9" width="97.4" height="9.9"/>
	</g>
</g>
</svg>
