<?xml version="1.0" encoding="utf-8"?>
<!-- Generator: Adobe Illustrator 24.0.3, SVG Export Plug-In . SVG Version: 6.00 Build 0)  -->
<svg version="1.1" id="Layer_1" xmlns="http://www.w3.org/2000/svg" xmlns:xlink="http://www.w3.org/1999/xlink" x="0px" y="0px"
	 viewBox="0 0 203 86.8" style="enable-background:new 0 0 203 86.8;" xml:space="preserve">
<title>Asset 2</title>
<path d="M42.8,18.9v9.8h-7.6v39.2H22.5V28.7H15v-9.8C15,18.9,42.8,18.9,42.8,18.9z"/>
<path d="M45.8,18.9H67v9.8h-8.5V38h8v9.3h-8v10.8h9.4v9.8H45.8V18.9z"/>
<path d="M101.3,40.2H88.5v-8.5c0.1-1.6,0-3.1-0.4-4.6c-0.4-0.7-1.1-1-1.8-0.9c-0.8-0.1-1.7,0.3-2,1.1c-0.4,1.6-0.5,3.2-0.4,4.8v22.8
	c-0.1,1.6,0.1,3.1,0.4,4.7c0.6,1,1.9,1.4,3,0.8c0.3-0.2,0.6-0.5,0.8-0.8c0.4-1.7,0.5-3.4,0.4-5.1v-6.2h12.8v1.9
	c0,5.1-0.4,8.7-1.1,10.8c-0.9,2.3-2.6,4.3-4.8,5.6c-2.7,1.7-5.9,2.5-9.1,2.4c-3.2,0.1-6.4-0.6-9.2-2c-2.3-1.2-4-3.2-4.8-5.6
	c-0.8-2.4-1.2-6-1.2-10.8V36.2c0-2.7,0.1-5.3,0.4-8c0.3-1.9,1-3.6,2.2-5.1c1.3-1.7,3-3,5-3.9c2.3-1,4.8-1.4,7.3-1.4
	c3.2-0.1,6.5,0.6,9.3,2.1c2.2,1.2,3.9,3.1,4.8,5.4c0.8,2.2,1.2,5.5,1.2,10.1C101.3,35.4,101.3,40.2,101.3,40.2z"/>
<path d="M135.2,18.9v49h-12.8V47.3h-3.8v20.6h-12.8v-49h12.8v17.5h3.8V18.9H135.2z"/>
<path d="M168.7,18.9v49h-11.2l-6.6-22.3v22.3h-10.7v-49h10.7L158,41V18.9H168.7z"/>
<path d="M203,47.6c0,4.9-0.1,8.4-0.4,10.5c-0.5,4.2-3.2,7.9-7.1,9.5c-2.3,1-4.8,1.4-7.3,1.4c-2.4,0-4.8-0.4-7.1-1.3
	c-2-0.8-3.7-2.1-5-3.9c-1.2-1.6-2-3.6-2.3-5.6c-0.3-3.5-0.4-7.1-0.4-10.6v-8.4c0-4.9,0.1-8.4,0.4-10.5c0.5-4.2,3.2-7.9,7.1-9.5
	c2.3-1,4.8-1.4,7.3-1.4c2.4,0,4.8,0.4,7.1,1.3c4,1.6,6.8,5.2,7.3,9.5c0.3,3.5,0.4,7.1,0.4,10.6V47.6z M190.2,31.5
	c0.1-1.5,0-2.9-0.4-4.4c-0.2-0.6-0.9-1.1-1.6-1c-0.6,0-1.2,0.3-1.5,0.8c-0.4,0.5-0.5,2-0.5,4.6v22.9c-0.1,1.8,0,3.5,0.3,5.3
	c0.2,0.7,0.9,1.1,1.6,1c0.8,0.1,1.5-0.4,1.7-1.2c0.3-1.8,0.4-3.6,0.4-5.5V31.5z"/>
<g>
	<rect y="0" width="50.3" height="9.9"/>
	<rect y="9.9" width="9.9" height="76.8"/>
	<rect x="9.9" y="76.8" width="193" height="9.9"/>
</g>
</svg>
